<?xml version="1.0" encoding="UTF-8"?>
<!-- Generated by Pixelmator Pro 2.4.7 -->
<svg width="135" height="140" viewBox="0 0 135 140" xmlns="http://www.w3.org/2000/svg" xmlns:xlink="http://www.w3.org/1999/xlink">
    <g id="g1">
        <path id="path1" fill="none" stroke="#939393" stroke-width="2" stroke-linecap="round" stroke-linejoin="round" d="M 53.240002 115.550003 C 53.245014 115.357765 53.145512 115.177895 52.98 115.080002 L 20.77 96.669998 C 20.603779 96.576424 20.500664 96.400749 20.5 96.209999 L 20.459999 41.360001 C 20.458605 41.171318 20.557629 40.996124 20.719999 40.900002 L 68.480003 13.169998 C 68.642372 13.073883 68.741394 12.898682 68.739998 12.709999 L 68.730003 7.279999 C 68.729347 7.09201 68.629158 6.918427 68.466698 6.823822 C 68.304237 6.729233 68.103821 6.727768 67.940002 6.820007 L 15.13 37.389999 C 14.967628 37.486115 14.868604 37.661316 14.87 37.849998 L 14.8 99.379997 C 14.798604 99.56868 14.897629 99.743881 15.06 99.839996 L 52.360001 121.550003 C 52.522274 121.641411 52.720619 121.640945 52.882458 121.548759 C 53.044292 121.456573 53.145863 121.286201 53.150002 121.099998 L 53.240002 115.550003"/>
        <path id="path2" fill="none" stroke="#939393" stroke-width="2" stroke-linecap="round" stroke-linejoin="round" d="M 62.990002 62.529999 L 63.07 127.129997 C 63.07048 127.574829 63.308151 127.981171 63.689999 128.190002 L 67.580002 130.350006 C 68.131294 130.65976 68.808746 130.652145 69.360001 130.330002 L 121.669998 99.900002 C 121.837921 99.800835 121.940681 99.621956 121.940002 99.43 L 121.989998 38.199997 C 121.989998 37.866664 121.846664 37.616664 121.559998 37.449997 L 79.129997 12.75 C 78.92244 12.627762 78.66523 12.62635 78.456345 12.746307 C 78.247452 12.866264 78.119034 13.089119 78.120003 13.330002 L 78.010002 52.5 C 78.003334 53.493337 78.5 53.990005 79.5 53.990005 L 98.5 53.959999 C 98.628113 53.958435 98.747719 54.023003 98.81823 54.13179 C 98.888741 54.240578 98.900681 54.378975 98.849998 54.5 C 98.609998 55.046666 98.296666 55.603333 97.910004 56.169998 C 91.610001 65.429998 85.229998 74.636665 78.769997 83.790001 C 77.956668 84.943331 77.803335 86.639997 78.309998 88.879997 C 78.363332 89.126666 78.516665 89.25 78.769997 89.25 L 108.5 89.25 C 108.631706 89.250031 108.757881 89.197029 108.850067 89.102966 C 108.942253 89.008896 108.992691 88.881683 108.989998 88.75 L 108.980003 84.269997 C 108.980003 83.877876 108.662125 83.559998 108.269997 83.559998 L 87.989998 83.519997 C 87.803986 83.515877 87.633934 83.412308 87.546463 83.249847 C 87.458984 83.087395 87.46801 82.891922 87.57 82.739998 C 93.969999 73.193331 100.493332 63.736664 107.139999 54.369995 C 108.306666 52.723333 108.62 50.756668 108.080002 48.470001 C 108.006668 48.156667 107.81 48 107.489998 48 L 85.830002 48 C 85.592514 48 85.400002 47.811958 85.400002 47.580002 L 85.339996 23.959999 C 85.340904 23.800713 85.425949 23.653778 85.563614 23.573639 C 85.701279 23.493507 85.871048 23.492126 86.010002 23.57 L 115.589996 40.709999 C 115.979332 40.932556 116.219704 41.348434 116.220001 41.800003 L 116.300003 95.790001 C 116.300003 96.156665 116.143336 96.429998 115.830002 96.610001 L 71.209999 122.529999 C 71.012642 122.643951 70.769577 122.644363 70.571831 122.531075 C 70.374092 122.417786 70.251511 122.207886 70.25 121.980003 L 70.25 48.509995 C 70.25 48.183334 70.086667 48.016668 69.760002 48.009995 L 61.509998 48 C 61.176665 48 60.939999 48.149999 60.799999 48.449997 C 56.790001 57.160004 53.98 66.800003 50.650002 75.82 C 50.303335 76.760002 49.880001 77.610003 49.380001 78.370003 C 49.292969 78.505142 49.13644 78.578758 48.976849 78.559608 C 48.817253 78.540451 48.682587 78.431892 48.630001 78.279999 L 37.580002 48.459999 C 37.460002 48.14667 37.230001 47.990005 36.889999 47.990005 L 28.5 48 C 28.166667 48 28 48.166667 28 48.5 L 27.969999 88.730003 C 27.969999 89.076668 28.139999 89.25 28.48 89.25 L 34.709999 89.25 C 35.01 89.243332 35.156667 89.089999 35.150002 88.790001 L 34.689999 60.740005 C 34.669999 59.506668 34.88 59.466665 35.32 60.619995 L 46.27 88.940002 C 46.343876 89.127365 46.522427 89.250366 46.720001 89.25 L 51.169998 89.25 C 51.59103 89.249825 51.96685 88.985947 52.110001 88.589996 L 61.84 62.32 C 62.6 60.273333 62.983334 60.343333 62.990002 62.529999"/>
    </g>
    <path id="path3" fill="#fefeff" stroke="none" d="M 53.240002 115.550003 L 53.150002 121.099998 C 53.145863 121.286201 53.044292 121.456573 52.882458 121.548759 C 52.720619 121.640945 52.522274 121.641411 52.360001 121.550003 L 15.06 99.839996 C 14.897629 99.743881 14.798604 99.56868 14.8 99.379997 L 14.87 37.849998 C 14.868604 37.661316 14.967628 37.486115 15.13 37.389999 L 67.940002 6.820007 C 68.103821 6.727768 68.304237 6.729233 68.466698 6.823822 C 68.629158 6.918427 68.729347 7.09201 68.730003 7.279999 L 68.739998 12.709999 C 68.741394 12.898682 68.642372 13.073883 68.480003 13.169998 L 20.719999 40.900002 C 20.557629 40.996124 20.458605 41.171318 20.459999 41.360001 L 20.5 96.209999 C 20.500664 96.400749 20.603779 96.576424 20.77 96.669998 L 52.98 115.080002 C 53.145512 115.177895 53.245014 115.357765 53.240002 115.550003 Z"/>
    <path id="path4" fill="#fefeff" stroke="none" d="M 62.990002 62.529999 C 62.983334 60.343333 62.6 60.273333 61.84 62.32 L 52.110001 88.589996 C 51.96685 88.985947 51.59103 89.249825 51.169998 89.25 L 46.720001 89.25 C 46.522427 89.250366 46.343876 89.127365 46.27 88.940002 L 35.32 60.619995 C 34.88 59.466665 34.669999 59.506668 34.689999 60.740005 L 35.150002 88.790001 C 35.156667 89.089999 35.01 89.243332 34.709999 89.25 L 28.48 89.25 C 28.139999 89.25 27.969999 89.076668 27.969999 88.730003 L 28 48.5 C 28 48.166667 28.166667 48 28.5 48 L 36.889999 47.990005 C 37.230001 47.990005 37.460002 48.14667 37.580002 48.459999 L 48.630001 78.279999 C 48.682587 78.431892 48.817253 78.540451 48.976849 78.559608 C 49.13644 78.578758 49.292969 78.505142 49.380001 78.370003 C 49.880001 77.610003 50.303335 76.760002 50.650002 75.82 C 53.98 66.800003 56.790001 57.160004 60.799999 48.449997 C 60.939999 48.149999 61.176665 48 61.509998 48 L 69.760002 48.009995 C 70.086667 48.016668 70.25 48.183334 70.25 48.509995 L 70.25 121.980003 C 70.251511 122.207886 70.374092 122.417786 70.571831 122.531075 C 70.769577 122.644363 71.012642 122.643951 71.209999 122.529999 L 115.830002 96.610001 C 116.143336 96.429998 116.300003 96.156665 116.300003 95.790001 L 116.220001 41.800003 C 116.219704 41.348434 115.979332 40.932556 115.589996 40.709999 L 86.010002 23.57 C 85.871048 23.492126 85.701279 23.493507 85.563614 23.573639 C 85.425949 23.653778 85.340904 23.800713 85.339996 23.959999 L 85.400002 47.580002 C 85.400002 47.811958 85.592514 48 85.830002 48 L 107.489998 48 C 107.81 48 108.006668 48.156667 108.080002 48.470001 C 108.62 50.756668 108.306666 52.723333 107.139999 54.369995 C 100.493332 63.736664 93.969999 73.193331 87.57 82.739998 C 87.46801 82.891922 87.458984 83.087395 87.546463 83.249847 C 87.633934 83.412308 87.803986 83.515877 87.989998 83.519997 L 108.269997 83.559998 C 108.662125 83.559998 108.980003 83.877876 108.980003 84.269997 L 108.989998 88.75 C 108.992691 88.881683 108.942253 89.008896 108.850067 89.102966 C 108.757881 89.197029 108.631706 89.250031 108.5 89.25 L 78.769997 89.25 C 78.516665 89.25 78.363332 89.126666 78.309998 88.879997 C 77.803335 86.639997 77.956668 84.943331 78.769997 83.790001 C 85.229998 74.636665 91.610001 65.429998 97.910004 56.169998 C 98.296666 55.603333 98.609998 55.046666 98.849998 54.5 C 98.900681 54.378975 98.888741 54.240578 98.81823 54.13179 C 98.747719 54.023003 98.628113 53.958435 98.5 53.959999 L 79.5 53.990005 C 78.5 53.990005 78.003334 53.493337 78.010002 52.5 L 78.120003 13.330002 C 78.119034 13.089119 78.247452 12.866264 78.456345 12.746307 C 78.66523 12.62635 78.92244 12.627762 79.129997 12.75 L 121.559998 37.449997 C 121.846664 37.616664 121.989998 37.866664 121.989998 38.199997 L 121.940002 99.43 C 121.940681 99.621956 121.837921 99.800835 121.669998 99.900002 L 69.360001 130.330002 C 68.808746 130.652145 68.131294 130.65976 67.580002 130.350006 L 63.689999 128.190002 C 63.308151 127.981171 63.07048 127.574829 63.07 127.129997 L 62.990002 62.529999 Z"/>
</svg>
