<?xml version="1.0" encoding="UTF-8" standalone="no"?>
<!DOCTYPE svg PUBLIC "-//W3C//DTD SVG 1.1//EN" "http://www.w3.org/Graphics/SVG/1.1/DTD/svg11.dtd">
<svg xmlns="http://www.w3.org/2000/svg" version="1.1" viewBox="0.00 0.00 135.00 140.00">
<g stroke-width="2.00" fill="none" stroke-linecap="butt">
<path stroke="#939393" vector-effect="non-scaling-stroke" d="
  M 53.24 115.55
  A 0.53 0.53 0.0 0 0 52.98 115.08
  L 20.77 96.67
  A 0.53 0.53 0.0 0 1 20.50 96.21
  L 20.46 41.36
  A 0.53 0.53 0.0 0 1 20.72 40.90
  L 68.48 13.17
  A 0.53 0.53 0.0 0 0 68.74 12.71
  L 68.73 7.28
  A 0.53 0.53 0.0 0 0 67.94 6.82
  L 15.13 37.39
  A 0.53 0.53 0.0 0 0 14.87 37.85
  L 14.80 99.38
  A 0.53 0.53 0.0 0 0 15.06 99.84
  L 52.36 121.55
  A 0.53 0.53 0.0 0 0 53.15 121.10
  L 53.24 115.55"
/>
<path stroke="#939393" vector-effect="non-scaling-stroke" d="
  M 62.99 62.53
  L 63.07 127.13
  A 1.22 1.19 -75.9 0 0 63.69 128.19
  L 67.58 130.35
  A 1.80 1.78 -45.3 0 0 69.36 130.33
  L 121.67 99.90
  A 0.55 0.54 -15.5 0 0 121.94 99.43
  L 121.99 38.20
  Q 121.99 37.70 121.56 37.45
  L 79.13 12.75
  A 0.67 0.67 0.0 0 0 78.12 13.33
  L 78.01 52.50
  Q 78.00 53.99 79.50 53.99
  L 98.50 53.96
  A 0.39 0.38 -78.3 0 1 98.85 54.50
  Q 98.49 55.32 97.91 56.17
  Q 88.46 70.06 78.77 83.79
  Q 77.55 85.52 78.31 88.88
  Q 78.39 89.25 78.77 89.25
  L 108.50 89.25
  A 0.49 0.49 0.0 0 0 108.99 88.75
  L 108.98 84.27
  A 0.71 0.71 0.0 0 0 108.27 83.56
  L 87.99 83.52
  A 0.51 0.50 17.1 0 1 87.57 82.74
  Q 97.17 68.42 107.14 54.37
  Q 108.89 51.90 108.08 48.47
  Q 107.97 48.00 107.49 48.00
  L 85.83 48.00
  A 0.43 0.42 0.0 0 1 85.40 47.58
  L 85.34 23.96
  A 0.45 0.45 0.0 0 1 86.01 23.57
  L 115.59 40.71
  A 1.26 1.25 -75.2 0 1 116.22 41.80
  L 116.30 95.79
  Q 116.30 96.34 115.83 96.61
  L 71.21 122.53
  A 0.64 0.64 0.0 0 1 70.25 121.98
  L 70.25 48.51
  Q 70.25 48.02 69.76 48.01
  L 61.51 48.00
  Q 61.01 48.00 60.80 48.45
  C 56.79 57.16 53.98 66.80 50.65 75.82
  Q 50.13 77.23 49.38 78.37
  A 0.42 0.42 0.0 0 1 48.63 78.28
  L 37.58 48.46
  Q 37.40 47.99 36.89 47.99
  L 28.50 48.00
  Q 28.00 48.00 28.00 48.50
  L 27.97 88.73
  Q 27.97 89.25 28.48 89.25
  L 34.71 89.25
  Q 35.16 89.24 35.15 88.79
  L 34.69 60.74
  Q 34.66 58.89 35.32 60.62
  L 46.27 88.94
  A 0.49 0.48 79.3 0 0 46.72 89.25
  L 51.17 89.25
  A 1.00 1.00 0.0 0 0 52.11 88.59
  L 61.84 62.32
  Q 62.98 59.25 62.99 62.53"
/>
</g>
<path fill="#272727" d="
  M 0.00 0.00
  L 135.00 0.00
  L 135.00 140.00
  L 0.00 140.00
  L 0.00 0.00
  Z
  M 53.24 115.55
  A 0.53 0.53 0.0 0 0 52.98 115.08
  L 20.77 96.67
  A 0.53 0.53 0.0 0 1 20.50 96.21
  L 20.46 41.36
  A 0.53 0.53 0.0 0 1 20.72 40.90
  L 68.48 13.17
  A 0.53 0.53 0.0 0 0 68.74 12.71
  L 68.73 7.28
  A 0.53 0.53 0.0 0 0 67.94 6.82
  L 15.13 37.39
  A 0.53 0.53 0.0 0 0 14.87 37.85
  L 14.80 99.38
  A 0.53 0.53 0.0 0 0 15.06 99.84
  L 52.36 121.55
  A 0.53 0.53 0.0 0 0 53.15 121.10
  L 53.24 115.55
  Z
  M 62.99 62.53
  L 63.07 127.13
  A 1.22 1.19 -75.9 0 0 63.69 128.19
  L 67.58 130.35
  A 1.80 1.78 -45.3 0 0 69.36 130.33
  L 121.67 99.90
  A 0.55 0.54 -15.5 0 0 121.94 99.43
  L 121.99 38.20
  Q 121.99 37.70 121.56 37.45
  L 79.13 12.75
  A 0.67 0.67 0.0 0 0 78.12 13.33
  L 78.01 52.50
  Q 78.00 53.99 79.50 53.99
  L 98.50 53.96
  A 0.39 0.38 -78.3 0 1 98.85 54.50
  Q 98.49 55.32 97.91 56.17
  Q 88.46 70.06 78.77 83.79
  Q 77.55 85.52 78.31 88.88
  Q 78.39 89.25 78.77 89.25
  L 108.50 89.25
  A 0.49 0.49 0.0 0 0 108.99 88.75
  L 108.98 84.27
  A 0.71 0.71 0.0 0 0 108.27 83.56
  L 87.99 83.52
  A 0.51 0.50 17.1 0 1 87.57 82.74
  Q 97.17 68.42 107.14 54.37
  Q 108.89 51.90 108.08 48.47
  Q 107.97 48.00 107.49 48.00
  L 85.83 48.00
  A 0.43 0.42 0.0 0 1 85.40 47.58
  L 85.34 23.96
  A 0.45 0.45 0.0 0 1 86.01 23.57
  L 115.59 40.71
  A 1.26 1.25 -75.2 0 1 116.22 41.80
  L 116.30 95.79
  Q 116.30 96.34 115.83 96.61
  L 71.21 122.53
  A 0.64 0.64 0.0 0 1 70.25 121.98
  L 70.25 48.51
  Q 70.25 48.02 69.76 48.01
  L 61.51 48.00
  Q 61.01 48.00 60.80 48.45
  C 56.79 57.16 53.98 66.80 50.65 75.82
  Q 50.13 77.23 49.38 78.37
  A 0.42 0.42 0.0 0 1 48.63 78.28
  L 37.58 48.46
  Q 37.40 47.99 36.89 47.99
  L 28.50 48.00
  Q 28.00 48.00 28.00 48.50
  L 27.97 88.73
  Q 27.97 89.25 28.48 89.25
  L 34.71 89.25
  Q 35.16 89.24 35.15 88.79
  L 34.69 60.74
  Q 34.66 58.89 35.32 60.62
  L 46.27 88.94
  A 0.49 0.48 79.3 0 0 46.72 89.25
  L 51.17 89.25
  A 1.00 1.00 0.0 0 0 52.11 88.59
  L 61.84 62.32
  Q 62.98 59.25 62.99 62.53
  Z"
/>
<path fill="#fefeff" d="
  M 53.24 115.55
  L 53.15 121.10
  A 0.53 0.53 0.0 0 1 52.36 121.55
  L 15.06 99.84
  A 0.53 0.53 0.0 0 1 14.80 99.38
  L 14.87 37.85
  A 0.53 0.53 0.0 0 1 15.13 37.39
  L 67.94 6.82
  A 0.53 0.53 0.0 0 1 68.73 7.28
  L 68.74 12.71
  A 0.53 0.53 0.0 0 1 68.48 13.17
  L 20.72 40.90
  A 0.53 0.53 0.0 0 0 20.46 41.36
  L 20.50 96.21
  A 0.53 0.53 0.0 0 0 20.77 96.67
  L 52.98 115.08
  A 0.53 0.53 0.0 0 1 53.24 115.55
  Z"
/>
<path fill="#fefeff" d="
  M 62.99 62.53
  Q 62.98 59.25 61.84 62.32
  L 52.11 88.59
  A 1.00 1.00 0.0 0 1 51.17 89.25
  L 46.72 89.25
  A 0.49 0.48 79.3 0 1 46.27 88.94
  L 35.32 60.62
  Q 34.66 58.89 34.69 60.74
  L 35.15 88.79
  Q 35.16 89.24 34.71 89.25
  L 28.48 89.25
  Q 27.97 89.25 27.97 88.73
  L 28.00 48.50
  Q 28.00 48.00 28.50 48.00
  L 36.89 47.99
  Q 37.40 47.99 37.58 48.46
  L 48.63 78.28
  A 0.42 0.42 0.0 0 0 49.38 78.37
  Q 50.13 77.23 50.65 75.82
  C 53.98 66.80 56.79 57.16 60.80 48.45
  Q 61.01 48.00 61.51 48.00
  L 69.76 48.01
  Q 70.25 48.02 70.25 48.51
  L 70.25 121.98
  A 0.64 0.64 0.0 0 0 71.21 122.53
  L 115.83 96.61
  Q 116.30 96.34 116.30 95.79
  L 116.22 41.80
  A 1.26 1.25 -75.2 0 0 115.59 40.71
  L 86.01 23.57
  A 0.45 0.45 0.0 0 0 85.34 23.96
  L 85.40 47.58
  A 0.43 0.42 -0.0 0 0 85.83 48.00
  L 107.49 48.00
  Q 107.97 48.00 108.08 48.47
  Q 108.89 51.90 107.14 54.37
  Q 97.17 68.42 87.57 82.74
  A 0.51 0.50 17.1 0 0 87.99 83.52
  L 108.27 83.56
  A 0.71 0.71 0.0 0 1 108.98 84.27
  L 108.99 88.75
  A 0.49 0.49 0.0 0 1 108.50 89.25
  L 78.77 89.25
  Q 78.39 89.25 78.31 88.88
  Q 77.55 85.52 78.77 83.79
  Q 88.46 70.06 97.91 56.17
  Q 98.49 55.32 98.85 54.50
  A 0.39 0.38 -78.3 0 0 98.50 53.96
  L 79.50 53.99
  Q 78.00 53.99 78.01 52.50
  L 78.12 13.33
  A 0.67 0.67 0.0 0 1 79.13 12.75
  L 121.56 37.45
  Q 121.99 37.70 121.99 38.20
  L 121.94 99.43
  A 0.55 0.54 -15.5 0 1 121.67 99.90
  L 69.36 130.33
  A 1.80 1.78 -45.3 0 1 67.58 130.35
  L 63.69 128.19
  A 1.22 1.19 -75.9 0 1 63.07 127.13
  L 62.99 62.53
  Z"
/>
</svg>
